<?xml version="1.0" encoding="UTF-8" standalone="no"?>
<!-- Created with Inkscape (http://www.inkscape.org/) -->

<svg
   version="1.1"
   id="svg2"
   width="666.66669"
   height="523.41333"
   viewBox="0 0 666.66669 523.41333"
   sodipodi:docname="3979019.eps"
   xmlns:inkscape="http://www.inkscape.org/namespaces/inkscape"
   xmlns:sodipodi="http://sodipodi.sourceforge.net/DTD/sodipodi-0.dtd"
   xmlns="http://www.w3.org/2000/svg"
   xmlns:svg="http://www.w3.org/2000/svg">
   <defs
      id="defs6" />
   <sodipodi:namedview
      id="namedview4"
      pagecolor="#ffffff"
      bordercolor="#000000"
      borderopacity="0.25"
      inkscape:showpageshadow="2"
      inkscape:pageopacity="0.0"
      inkscape:pagecheckerboard="0"
      inkscape:deskcolor="#d1d1d1" />
   <g
      id="g8"
      inkscape:groupmode="layer"
      inkscape:label="ink_ext_XXXXXX"
      transform="matrix(1.3333333,0,0,-1.3333333,0,523.41333)">
      <g
         id="g10"
         transform="scale(0.1)">
         <path
            d="m 0,449.129 h 5000 v 2.5 H 0 Z"
            style="fill:#e7e8e5;fill-opacity:1;fill-rule:nonzero;stroke:none"
            id="path12" />
         <path
            d="m 4350,290.672 h 149.01 v -2.5 H 4350 v 2.5"
            style="fill:#e7e8e5;fill-opacity:1;fill-rule:nonzero;stroke:none"
            id="path14" />
         <path
            d="m 3225.27,263.531 h 86.93 v -2.5 h -86.93 v 2.5"
            style="fill:#e7e8e5;fill-opacity:1;fill-rule:nonzero;stroke:none"
            id="path16" />
         <path
            d="m 3965.86,383.531 h 341.92 v -2.5 h -341.92 v 2.5"
            style="fill:#e7e8e5;fill-opacity:1;fill-rule:nonzero;stroke:none"
            id="path18" />
         <path
            d="m 664.375,331.93 h 431.935 v -2.5 H 664.375 v 2.5"
            style="fill:#e7e8e5;fill-opacity:1;fill-rule:nonzero;stroke:none"
            id="path20" />
         <path
            d="m 1185.34,329.43 h 155.77 v 2.5 h -155.77 z"
            style="fill:#e7e8e5;fill-opacity:1;fill-rule:nonzero;stroke:none"
            id="path22" />
         <path
            d="m 1610.79,362.98 h 936.762 v 2.5 H 1610.79 Z"
            style="fill:#e7e8e5;fill-opacity:1;fill-rule:nonzero;stroke:none"
            id="path24" />
         <path
            d="m 439.152,3723.58 c -30.101,0 -54.582,-24.48 -54.582,-54.57 V 954.691 c 0,-30.101 24.481,-54.582 54.582,-54.582 H 2370.14 c 30.08,0 54.57,24.481 54.57,54.582 V 3669.01 c 0,30.09 -24.49,54.57 -54.57,54.57 H 439.152 M 2370.14,897.609 H 439.152 c -31.476,0 -57.082,25.61 -57.082,57.082 V 3669.01 c 0,31.47 25.606,57.07 57.082,57.07 H 2370.14 c 31.46,0 57.07,-25.6 57.07,-57.07 V 954.691 c 0,-31.472 -25.61,-57.082 -57.07,-57.082"
            style="fill:#e7e8e5;fill-opacity:1;fill-rule:nonzero;stroke:none"
            id="path26" />
         <path
            d="m 2602.12,3723.58 c -30.09,0 -54.57,-24.48 -54.57,-54.57 V 954.691 c 0,-30.101 24.48,-54.582 54.57,-54.582 h 1930.99 c 30.09,0 54.58,24.481 54.58,54.582 V 3669.01 c 0,30.09 -24.49,54.57 -54.58,54.57 H 2602.12 M 4533.11,897.609 H 2602.12 c -31.47,0 -57.07,25.61 -57.07,57.082 V 3669.01 c 0,31.47 25.6,57.07 57.07,57.07 h 1930.99 c 31.47,0 57.08,-25.6 57.08,-57.07 V 954.691 c 0,-31.472 -25.61,-57.082 -57.08,-57.082"
            style="fill:#e7e8e5;fill-opacity:1;fill-rule:nonzero;stroke:none"
            id="path28" />
         <path
            d="m 745.699,451.629 h 946.66 v 2663.98 h -946.66 z"
            style="fill:#dadbd8;fill-opacity:1;fill-rule:nonzero;stroke:none"
            id="path30" />
         <path
            d="m 1692.36,451.629 h 2510.07 v 2663.98 H 1692.36 Z"
            style="fill:#f3f2f1;fill-opacity:1;fill-rule:nonzero;stroke:none"
            id="path32" />
         <path
            d="M 645.699,2715.61 H 1792.36 v 66.67 H 645.699 v -66.67"
            style="fill:#e7e8e5;fill-opacity:1;fill-rule:nonzero;stroke:none"
            id="path34" />
         <path
            d="m 1792.36,2715.61 h 2510.07 v 66.6719 H 1792.36 Z"
            style="fill:#dadbd8;fill-opacity:1;fill-rule:nonzero;stroke:none"
            id="path36" />
         <path
            d="M 645.699,2315.61 H 1792.36 v 66.67 H 645.699 v -66.67"
            style="fill:#e7e8e5;fill-opacity:1;fill-rule:nonzero;stroke:none"
            id="path38" />
         <path
            d="m 1792.36,2315.61 h 2510.07 v 66.6719 H 1792.36 Z"
            style="fill:#dadbd8;fill-opacity:1;fill-rule:nonzero;stroke:none"
            id="path40" />
         <path
            d="m 645.699,1915.61 h 1146.66 v 66.6719 H 645.699 Z"
            style="fill:#e7e8e5;fill-opacity:1;fill-rule:nonzero;stroke:none"
            id="path42" />
         <path
            d="m 1792.36,1915.61 h 2510.07 v 66.6719 H 1792.36 Z"
            style="fill:#dadbd8;fill-opacity:1;fill-rule:nonzero;stroke:none"
            id="path44" />
         <path
            d="m 645.699,1515.61 h 1146.66 v 66.6719 H 645.699 Z"
            style="fill:#e7e8e5;fill-opacity:1;fill-rule:nonzero;stroke:none"
            id="path46" />
         <path
            d="m 1792.36,1515.61 h 2510.07 v 66.6719 H 1792.36 Z"
            style="fill:#dadbd8;fill-opacity:1;fill-rule:nonzero;stroke:none"
            id="path48" />
         <path
            d="m 645.699,1115.61 h 1146.66 v 66.6719 H 645.699 Z"
            style="fill:#e7e8e5;fill-opacity:1;fill-rule:nonzero;stroke:none"
            id="path50" />
         <path
            d="m 1792.36,1115.61 h 2510.07 v 66.6719 H 1792.36 Z"
            style="fill:#dadbd8;fill-opacity:1;fill-rule:nonzero;stroke:none"
            id="path52" />
         <path
            d="m 645.699,715.609 h 1146.66 v 66.6719 H 645.699 Z"
            style="fill:#e7e8e5;fill-opacity:1;fill-rule:nonzero;stroke:none"
            id="path54" />
         <path
            d="m 1792.36,715.609 h 2510.07 v 66.6719 H 1792.36 Z"
            style="fill:#dadbd8;fill-opacity:1;fill-rule:nonzero;stroke:none"
            id="path56" />
         <path
            d="m 1011.26,3215.61 h 1439.99 v 710 H 1011.26 Z"
            style="fill:#f3f2f1;fill-opacity:1;fill-rule:nonzero;stroke:none"
            id="path58" />
         <path
            d="m 1792.36,3215.61 h -122.22 v -100 h 122.22 v 100"
            style="fill:#dadbd8;fill-opacity:1;fill-rule:nonzero;stroke:none"
            id="path60" />
         <path
            d="m 1011.26,3215.61 h 1439.99 v 77.1836 H 1011.26 Z"
            style="fill:#ededeb;fill-opacity:1;fill-rule:nonzero;stroke:none"
            id="path62" />
         <path
            d="m 2451.25,3848.43 h -1440 v 77.18 h 1440 v -77.18"
            style="fill:#ededeb;fill-opacity:1;fill-rule:nonzero;stroke:none"
            id="path64" />
         <path
            d="m 3761.25,3179.07 h -713.86 v 450.59 h 713.86 v -450.59"
            style="fill:#f3f2f1;fill-opacity:1;fill-rule:nonzero;stroke:none"
            id="path66" />
         <path
            d="m 3443.11,3179.07 h -77.57 v -63.46 h 77.57 v 63.46"
            style="fill:#dadbd8;fill-opacity:1;fill-rule:nonzero;stroke:none"
            id="path68" />
         <path
            d="m 3761.25,3179.07 h -713.86 v 48.98 h 713.86 v -48.98"
            style="fill:#ededeb;fill-opacity:1;fill-rule:nonzero;stroke:none"
            id="path70" />
         <path
            d="m 3761.25,3580.67 h -713.86 v 48.99 h 713.86 v -48.99"
            style="fill:#ededeb;fill-opacity:1;fill-rule:nonzero;stroke:none"
            id="path72" />
         <path
            d="m 3818.75,3034.78 h -252.5 v -252.5 h 252.5 v 252.5"
            style="fill:#e2e2e0;fill-opacity:1;fill-rule:nonzero;stroke:none"
            id="path74" />
         <path
            d="m 3818.75,3034.78 h 244.17 v -252.5 h -244.17 v 252.5"
            style="fill:#ffffff;fill-opacity:1;fill-rule:nonzero;stroke:none"
            id="path76" />
         <path
            d="m 3518.75,3034.78 h -252.5 v -252.5 h 252.5 v 252.5"
            style="fill:#e2e2e0;fill-opacity:1;fill-rule:nonzero;stroke:none"
            id="path78" />
         <path
            d="m 3518.75,3034.78 h 244.17 v -252.5 h -244.17 v 252.5"
            style="fill:#ffffff;fill-opacity:1;fill-rule:nonzero;stroke:none"
            id="path80" />
         <path
            d="m 3218.75,3034.78 h -252.5 v -252.5 h 252.5 v 252.5"
            style="fill:#e2e2e0;fill-opacity:1;fill-rule:nonzero;stroke:none"
            id="path82" />
         <path
            d="m 3218.75,3034.78 h 244.17 v -252.5 h -244.17 v 252.5"
            style="fill:#ffffff;fill-opacity:1;fill-rule:nonzero;stroke:none"
            id="path84" />
         <path
            d="m 2666.25,2782.28 h 252.5 v 252.496 h -252.5 z"
            style="fill:#e2e2e0;fill-opacity:1;fill-rule:nonzero;stroke:none"
            id="path86" />
         <path
            d="m 2918.75,2782.28 h 244.172 v 252.496 H 2918.75 Z"
            style="fill:#ffffff;fill-opacity:1;fill-rule:nonzero;stroke:none"
            id="path88" />
         <path
            d="m 925.152,2382.28 h 105.768 v 265.61 H 925.152 v -265.61"
            style="fill:#ededeb;fill-opacity:1;fill-rule:nonzero;stroke:none"
            id="path90" />
         <path
            d="M 925.152,2382.28 H 822.875 v 265.61 h 102.277 v -265.61"
            style="fill:#ffffff;fill-opacity:1;fill-rule:nonzero;stroke:none"
            id="path92" />
         <path
            d="m 1050.82,2382.28 h 105.77 v 265.61 h -105.77 v -265.61"
            style="fill:#ededeb;fill-opacity:1;fill-rule:nonzero;stroke:none"
            id="path94" />
         <path
            d="M 1050.82,2382.28 H 948.539 v 265.61 h 102.281 v -265.61"
            style="fill:#ffffff;fill-opacity:1;fill-rule:nonzero;stroke:none"
            id="path96" />
         <path
            d="m 1176.48,2382.28 h 105.77 v 265.61 h -105.77 v -265.61"
            style="fill:#ededeb;fill-opacity:1;fill-rule:nonzero;stroke:none"
            id="path98" />
         <path
            d="M 1176.48,2382.28 H 1074.2 v 265.61 h 102.28 v -265.61"
            style="fill:#ffffff;fill-opacity:1;fill-rule:nonzero;stroke:none"
            id="path100" />
         <path
            d="m 1302.15,2382.28 h 105.77 v 265.61 h -105.77 v -265.61"
            style="fill:#ededeb;fill-opacity:1;fill-rule:nonzero;stroke:none"
            id="path102" />
         <path
            d="m 1302.15,2382.28 h -102.28 v 265.61 h 102.28 v -265.61"
            style="fill:#ffffff;fill-opacity:1;fill-rule:nonzero;stroke:none"
            id="path104" />
         <path
            d="m 1011.72,1182.27 h 142.391 v 178.891 H 1011.72 Z"
            style="fill:#ededeb;fill-opacity:1;fill-rule:nonzero;stroke:none"
            id="path106" />
         <path
            d="m 874.023,1182.27 h 137.695 v 178.891 H 874.023 Z"
            style="fill:#ffffff;fill-opacity:1;fill-rule:nonzero;stroke:none"
            id="path108" />
         <path
            d="m 1180.9,1182.27 h 142.391 v 178.891 H 1180.9 Z"
            style="fill:#ededeb;fill-opacity:1;fill-rule:nonzero;stroke:none"
            id="path110" />
         <path
            d="m 1043.2,1182.27 h 137.699 v 178.891 H 1043.2 Z"
            style="fill:#ffffff;fill-opacity:1;fill-rule:nonzero;stroke:none"
            id="path112" />
         <path
            d="m 1350.08,1182.27 h 142.402 v 178.891 H 1350.08 Z"
            style="fill:#ededeb;fill-opacity:1;fill-rule:nonzero;stroke:none"
            id="path114" />
         <path
            d="m 1212.38,1182.27 h 137.699 v 178.891 H 1212.38 Z"
            style="fill:#ffffff;fill-opacity:1;fill-rule:nonzero;stroke:none"
            id="path116" />
         <path
            d="m 1519.26,1182.27 h 142.387 v 178.891 H 1519.26 Z"
            style="fill:#ededeb;fill-opacity:1;fill-rule:nonzero;stroke:none"
            id="path118" />
         <path
            d="m 1381.57,1182.27 h 137.691 v 178.891 H 1381.57 Z"
            style="fill:#ffffff;fill-opacity:1;fill-rule:nonzero;stroke:none"
            id="path120" />
         <path
            d="m 3865.93,2234.78 h -139.94 v -252.5 h 139.94 v 252.5"
            style="fill:#e2e2e0;fill-opacity:1;fill-rule:nonzero;stroke:none"
            id="path122" />
         <path
            d="m 3865.93,2234.78 h 135.32 v -252.5 h -135.32 v 252.5"
            style="fill:#ffffff;fill-opacity:1;fill-rule:nonzero;stroke:none"
            id="path124" />
         <path
            d="m 3699.66,2234.78 h -139.94 v -252.5 h 139.94 v 252.5"
            style="fill:#e2e2e0;fill-opacity:1;fill-rule:nonzero;stroke:none"
            id="path126" />
         <path
            d="m 3699.66,2234.78 h 135.33 v -252.5 h -135.33 v 252.5"
            style="fill:#ffffff;fill-opacity:1;fill-rule:nonzero;stroke:none"
            id="path128" />
         <path
            d="m 3533.39,2234.78 h -139.94 v -252.5 h 139.94 v 252.5"
            style="fill:#e2e2e0;fill-opacity:1;fill-rule:nonzero;stroke:none"
            id="path130" />
         <path
            d="m 3533.39,2234.78 h 135.33 v -252.5 h -135.33 v 252.5"
            style="fill:#ffffff;fill-opacity:1;fill-rule:nonzero;stroke:none"
            id="path132" />
         <path
            d="m 3367.12,2234.78 h -139.94 v -252.5 h 139.94 v 252.5"
            style="fill:#e2e2e0;fill-opacity:1;fill-rule:nonzero;stroke:none"
            id="path134" />
         <path
            d="m 3367.12,2234.78 h 135.33 v -252.5 h -135.33 v 252.5"
            style="fill:#ffffff;fill-opacity:1;fill-rule:nonzero;stroke:none"
            id="path136" />
         <path
            d="m 2863.39,1982.28 h 139.941 v 252.5 H 2863.39 Z"
            style="fill:#e2e2e0;fill-opacity:1;fill-rule:nonzero;stroke:none"
            id="path138" />
         <path
            d="m 3003.33,2234.78 h 135.33 v -252.5 h -135.33 v 252.5"
            style="fill:#ffffff;fill-opacity:1;fill-rule:nonzero;stroke:none"
            id="path140" />
         <path
            d="m 2697.12,1982.28 h 139.949 v 252.5 H 2697.12 Z"
            style="fill:#e2e2e0;fill-opacity:1;fill-rule:nonzero;stroke:none"
            id="path142" />
         <path
            d="m 2837.07,1982.28 h 135.32 v 252.5 h -135.32 z"
            style="fill:#ffffff;fill-opacity:1;fill-rule:nonzero;stroke:none"
            id="path144" />
         <path
            d="m 2530.85,1982.28 h 139.949 v 252.5 H 2530.85 Z"
            style="fill:#e2e2e0;fill-opacity:1;fill-rule:nonzero;stroke:none"
            id="path146" />
         <path
            d="m 2670.8,1982.28 h 135.32 v 252.5 H 2670.8 Z"
            style="fill:#ffffff;fill-opacity:1;fill-rule:nonzero;stroke:none"
            id="path148" />
         <path
            d="m 2364.58,1982.28 h 139.953 v 252.5 H 2364.58 Z"
            style="fill:#e2e2e0;fill-opacity:1;fill-rule:nonzero;stroke:none"
            id="path150" />
         <path
            d="m 2504.53,1982.28 h 135.32 v 252.5 h -135.32 z"
            style="fill:#ffffff;fill-opacity:1;fill-rule:nonzero;stroke:none"
            id="path152" />
         <path
            d="m 3296.86,1182.86 h 340.98 v 178.301 h -340.98 z"
            style="fill:#e2e2e0;fill-opacity:1;fill-rule:nonzero;stroke:none"
            id="path154" />
         <path
            d="m 3637.84,1182.86 h 329.719 v 178.301 H 3637.84 Z"
            style="fill:#ffffff;fill-opacity:1;fill-rule:nonzero;stroke:none"
            id="path156" />
         <path
            d="m 2891.74,1182.86 h 340.969 v 178.301 H 2891.74 Z"
            style="fill:#e2e2e0;fill-opacity:1;fill-rule:nonzero;stroke:none"
            id="path158" />
         <path
            d="m 3232.71,1182.86 h 329.73 v 178.301 h -329.73 z"
            style="fill:#ffffff;fill-opacity:1;fill-rule:nonzero;stroke:none"
            id="path160" />
         <path
            d="m 2486.62,1182.86 h 340.969 v 178.301 H 2486.62 Z"
            style="fill:#e2e2e0;fill-opacity:1;fill-rule:nonzero;stroke:none"
            id="path162" />
         <path
            d="m 2827.59,1182.86 h 329.73 v 178.301 h -329.73 z"
            style="fill:#ffffff;fill-opacity:1;fill-rule:nonzero;stroke:none"
            id="path164" />
         <path
            d="m 2081.49,1182.86 h 340.98 v 178.301 h -340.98 z"
            style="fill:#e2e2e0;fill-opacity:1;fill-rule:nonzero;stroke:none"
            id="path166" />
         <path
            d="m 2422.47,1182.86 h 329.73 v 178.301 h -329.73 z"
            style="fill:#ffffff;fill-opacity:1;fill-rule:nonzero;stroke:none"
            id="path168" />
         <path
            d="m 2199.58,2494.78 c 0,62.13 -50.36,112.5 -112.5,112.5 -62.12,0 -112.5,-50.37 -112.5,-112.5 0,-62.13 50.38,-112.5 112.5,-112.5 62.14,0 112.5,50.37 112.5,112.5"
            style="fill:#e2e2e0;fill-opacity:1;fill-rule:nonzero;stroke:none"
            id="path170" />
         <path
            d="m 2499.59,2494.78 c 0,62.13 -50.37,112.5 -112.5,112.5 -62.13,0 -112.51,-50.37 -112.51,-112.5 0,-62.13 50.38,-112.5 112.51,-112.5 62.13,0 112.5,50.37 112.5,112.5"
            style="fill:#e2e2e0;fill-opacity:1;fill-rule:nonzero;stroke:none"
            id="path172" />
         <path
            d="m 2799.58,2494.78 c 0,62.13 -50.36,112.5 -112.5,112.5 -62.12,0 -112.5,-50.37 -112.5,-112.5 0,-62.13 50.38,-112.5 112.5,-112.5 62.14,0 112.5,50.37 112.5,112.5"
            style="fill:#e2e2e0;fill-opacity:1;fill-rule:nonzero;stroke:none"
            id="path174" />
         <path
            d="m 3099.59,2494.78 c 0,62.13 -50.37,112.5 -112.51,112.5 -62.12,0 -112.5,-50.37 -112.5,-112.5 0,-62.13 50.38,-112.5 112.5,-112.5 62.14,0 112.51,50.37 112.51,112.5"
            style="fill:#e2e2e0;fill-opacity:1;fill-rule:nonzero;stroke:none"
            id="path176" />
         <path
            d="m 956.063,1656.44 c 0,40.96 -33.204,74.17 -74.165,74.17 -40.96,0 -74.168,-33.21 -74.168,-74.17 0,-40.96 33.208,-74.16 74.168,-74.16 40.961,0 74.165,33.2 74.165,74.16"
            style="fill:#e2e2e0;fill-opacity:1;fill-rule:nonzero;stroke:none"
            id="path178" />
         <path
            d="m 1153.84,1656.44 c 0,40.96 -33.2,74.17 -74.16,74.17 -40.96,0 -74.17,-33.21 -74.17,-74.17 0,-40.96 33.21,-74.16 74.17,-74.16 40.96,0 74.16,33.2 74.16,74.16"
            style="fill:#e2e2e0;fill-opacity:1;fill-rule:nonzero;stroke:none"
            id="path180" />
         <path
            d="m 1351.62,1656.44 c 0,40.96 -33.21,74.17 -74.16,74.17 -40.97,0 -74.17,-33.21 -74.17,-74.17 0,-40.96 33.2,-74.16 74.17,-74.16 40.95,0 74.16,33.2 74.16,74.16"
            style="fill:#e2e2e0;fill-opacity:1;fill-rule:nonzero;stroke:none"
            id="path182" />
         <path
            d="m 1549.4,1656.44 c 0,40.96 -33.21,74.17 -74.17,74.17 -40.96,0 -74.17,-33.21 -74.17,-74.17 0,-40.96 33.21,-74.16 74.17,-74.16 40.96,0 74.17,33.2 74.17,74.16"
            style="fill:#e2e2e0;fill-opacity:1;fill-rule:nonzero;stroke:none"
            id="path184" />
         <path
            d="m 3405.89,859.332 c 0,42.559 -34.49,77.059 -77.05,77.059 -42.56,0 -77.05,-34.5 -77.05,-77.059 0,-42.551 34.49,-77.051 77.05,-77.051 42.56,0 77.05,34.5 77.05,77.051"
            style="fill:#ffffff;fill-opacity:1;fill-rule:nonzero;stroke:none"
            id="path186" />
         <path
            d="m 3611.38,859.332 c 0,42.559 -34.5,77.059 -77.06,77.059 -42.56,0 -77.05,-34.5 -77.05,-77.059 0,-42.551 34.49,-77.051 77.05,-77.051 42.56,0 77.06,34.5 77.06,77.051"
            style="fill:#ffffff;fill-opacity:1;fill-rule:nonzero;stroke:none"
            id="path188" />
         <path
            d="m 3816.86,859.332 c 0,42.559 -34.5,77.059 -77.06,77.059 -42.55,0 -77.06,-34.5 -77.06,-77.059 0,-42.551 34.51,-77.051 77.06,-77.051 42.56,0 77.06,34.5 77.06,77.051"
            style="fill:#ffffff;fill-opacity:1;fill-rule:nonzero;stroke:none"
            id="path190" />
         <path
            d="m 4022.33,859.332 c 0,42.559 -34.49,77.059 -77.05,77.059 -42.56,0 -77.06,-34.5 -77.06,-77.059 0,-42.551 34.5,-77.051 77.06,-77.051 42.56,0 77.05,34.5 77.05,77.051"
            style="fill:#ffffff;fill-opacity:1;fill-rule:nonzero;stroke:none"
            id="path192" />
         <path
            d="m 3511.67,966.91 c 0,42.56 -34.5,77.06 -77.06,77.06 -42.55,0 -77.05,-34.5 -77.05,-77.06 0,-42.551 34.5,-77.051 77.05,-77.051 42.56,0 77.06,34.5 77.06,77.051"
            style="fill:#ffffff;fill-opacity:1;fill-rule:nonzero;stroke:none"
            id="path194" />
         <path
            d="m 3717.15,966.91 c 0,42.56 -34.5,77.06 -77.06,77.06 -42.55,0 -77.05,-34.5 -77.05,-77.06 0,-42.551 34.5,-77.051 77.05,-77.051 42.56,0 77.06,34.5 77.06,77.051"
            style="fill:#ffffff;fill-opacity:1;fill-rule:nonzero;stroke:none"
            id="path196" />
         <path
            d="m 3922.63,966.91 c 0,42.56 -34.5,77.06 -77.05,77.06 -42.56,0 -77.06,-34.5 -77.06,-77.06 0,-42.551 34.5,-77.051 77.06,-77.051 42.55,0 77.05,34.5 77.05,77.051"
            style="fill:#ffffff;fill-opacity:1;fill-rule:nonzero;stroke:none"
            id="path198" />
         <path
            d="m 2408.09,859.332 c 0,42.559 -34.5,77.059 -77.05,77.059 -42.56,0 -77.06,-34.5 -77.06,-77.059 0,-42.551 34.5,-77.051 77.06,-77.051 42.55,0 77.05,34.5 77.05,77.051"
            style="fill:#ffffff;fill-opacity:1;fill-rule:nonzero;stroke:none"
            id="path200" />
         <path
            d="m 2613.57,859.332 c 0,42.559 -34.5,77.059 -77.06,77.059 -42.55,0 -77.05,-34.5 -77.05,-77.059 0,-42.551 34.5,-77.051 77.05,-77.051 42.56,0 77.06,34.5 77.06,77.051"
            style="fill:#ffffff;fill-opacity:1;fill-rule:nonzero;stroke:none"
            id="path202" />
         <path
            d="m 2819.05,859.332 c 0,42.559 -34.5,77.059 -77.06,77.059 -42.55,0 -77.05,-34.5 -77.05,-77.059 0,-42.551 34.5,-77.051 77.05,-77.051 42.56,0 77.06,34.5 77.06,77.051"
            style="fill:#ffffff;fill-opacity:1;fill-rule:nonzero;stroke:none"
            id="path204" />
         <path
            d="m 3024.53,859.332 c 0,42.559 -34.5,77.059 -77.06,77.059 -42.55,0 -77.05,-34.5 -77.05,-77.059 0,-42.551 34.5,-77.051 77.05,-77.051 42.56,0 77.06,34.5 77.06,77.051"
            style="fill:#ffffff;fill-opacity:1;fill-rule:nonzero;stroke:none"
            id="path206" />
         <path
            d="m 2513.86,966.91 c 0,42.56 -34.49,77.06 -77.05,77.06 -42.56,0 -77.05,-34.5 -77.05,-77.06 0,-42.551 34.49,-77.051 77.05,-77.051 42.56,0 77.05,34.5 77.05,77.051"
            style="fill:#ffffff;fill-opacity:1;fill-rule:nonzero;stroke:none"
            id="path208" />
         <path
            d="m 2719.35,966.91 c 0,42.56 -34.51,77.06 -77.06,77.06 -42.56,0 -77.06,-34.5 -77.06,-77.06 0,-42.551 34.5,-77.051 77.06,-77.051 42.55,0 77.06,34.5 77.06,77.051"
            style="fill:#ffffff;fill-opacity:1;fill-rule:nonzero;stroke:none"
            id="path210" />
         <path
            d="m 2924.82,966.91 c 0,42.56 -34.5,77.06 -77.05,77.06 -42.56,0 -77.06,-34.5 -77.06,-77.06 0,-42.551 34.5,-77.051 77.06,-77.051 42.55,0 77.05,34.5 77.05,77.051"
            style="fill:#ffffff;fill-opacity:1;fill-rule:nonzero;stroke:none"
            id="path212" />
         <path
            d="m 3769.59,1783.62 56.52,-201.34 h -296.04 l 239.52,201.34"
            style="fill:#dadbd8;fill-opacity:1;fill-rule:nonzero;stroke:none"
            id="path214" />
         <path
            d="m 3769.59,1783.62 -102.91,-201.34 h 312.35 l -209.44,201.34"
            style="fill:#ffffff;fill-opacity:1;fill-rule:nonzero;stroke:none"
            id="path216" />
         <path
            d="m 3301.47,1783.62 56.52,-201.34 h -296.05 l 239.53,201.34"
            style="fill:#dadbd8;fill-opacity:1;fill-rule:nonzero;stroke:none"
            id="path218" />
         <path
            d="m 3301.47,1783.62 -102.91,-201.34 h 312.35 l -209.44,201.34"
            style="fill:#ffffff;fill-opacity:1;fill-rule:nonzero;stroke:none"
            id="path220" />
         <path
            d="m 2833.34,1783.62 56.52,-201.34 h -296.04 l 239.52,201.34"
            style="fill:#dadbd8;fill-opacity:1;fill-rule:nonzero;stroke:none"
            id="path222" />
         <path
            d="m 2833.34,1783.62 -102.91,-201.34 h 312.35 l -209.44,201.34"
            style="fill:#ffffff;fill-opacity:1;fill-rule:nonzero;stroke:none"
            id="path224" />
         <path
            d="M 907.02,2177.83 875.496,1982.28 H 1040.61 L 907.02,2177.83"
            style="fill:#f3f2f1;fill-opacity:1;fill-rule:nonzero;stroke:none"
            id="path226" />
         <path
            d="m 907.02,2177.83 57.394,-195.55 H 790.215 Z"
            style="fill:#ffffff;fill-opacity:1;fill-rule:nonzero;stroke:none"
            id="path228" />
         <path
            d="m 1168.1,2177.83 -31.53,-195.55 h 165.11 z"
            style="fill:#f3f2f1;fill-opacity:1;fill-rule:nonzero;stroke:none"
            id="path230" />
         <path
            d="m 1168.1,2177.83 57.39,-195.55 h -174.2 l 116.81,195.55"
            style="fill:#ffffff;fill-opacity:1;fill-rule:nonzero;stroke:none"
            id="path232" />
         <path
            d="m 1429.17,2177.83 -31.52,-195.55 h 165.1 z"
            style="fill:#f3f2f1;fill-opacity:1;fill-rule:nonzero;stroke:none"
            id="path234" />
         <path
            d="m 1429.17,2177.83 57.39,-195.55 h -174.2 z"
            style="fill:#ffffff;fill-opacity:1;fill-rule:nonzero;stroke:none"
            id="path236" />
         <path
            d="m 2365.22,1783.62 56.52,-201.34 H 2125.7 l 239.52,201.34"
            style="fill:#dadbd8;fill-opacity:1;fill-rule:nonzero;stroke:none"
            id="path238" />
         <path
            d="m 2365.22,1783.62 -102.91,-201.34 h 312.35 l -209.44,201.34"
            style="fill:#ffffff;fill-opacity:1;fill-rule:nonzero;stroke:none"
            id="path240" />
         <path
            d="M 4438.89,113.23 C 4438.89,50.6914 3570.83,0 2500,0 1429.18,0 561.109,50.6914 561.109,113.23 c 0,62.532 868.071,113.231 1938.891,113.231 1070.83,0 1938.89,-50.699 1938.89,-113.231"
            style="fill:#f3f2f1;fill-opacity:1;fill-rule:nonzero;stroke:none"
            id="path242" />
         <path
            d="m 2919.68,1418.69 h 827.95 c 35.18,0 63.7,-28.52 63.7,-63.7 0,-35.19 -28.52,-63.71 -63.7,-63.71 h -827.95 v 127.41"
            style="fill:#5F4AE8;fill-opacity:1;fill-rule:nonzero;stroke:none"
            id="path244" />
         <path
            d="m 3747.63,1291.28 h -292.62 c 0.95,26.1 1.59,51.42 1.96,76.07 9.96,4.33 19.66,8.96 29.09,13.94 0.35,12.6 0.59,25.1 0.71,37.4 h 236.66 24.2 c 35.18,0 63.7,-28.52 63.7,-63.7 0,-35.19 -28.52,-63.71 -63.7,-63.71 m -535.43,0 h -37.83 v 23.13 c 10.54,0.28 21.14,0.68 31.75,1.24 2.07,-8.26 4.1,-16.39 6.08,-24.37"
            style="fill:#d0d0e3;fill-opacity:1;fill-rule:nonzero;stroke:none"
            id="path246" />
         <path
            d="m 3762.56,1815.95 c 0,-52.87 -42.86,-95.73 -95.73,-95.73 -52.87,0 -95.73,42.86 -95.73,95.73 0,52.87 42.86,95.73 95.73,95.73 52.87,0 95.73,-42.86 95.73,-95.73"
            style="fill:#5F4AE8;fill-opacity:1;fill-rule:nonzero;stroke:none"
            id="path248" />
         <path
            d="m 3759.51,1840.04 h -185.35 c 10.68,41.21 48.12,71.64 92.67,71.64 44.55,0 82,-30.43 92.68,-71.64"
            style="fill:#d0d0e3;fill-opacity:1;fill-rule:nonzero;stroke:none"
            id="path250" />
         <path
            d="m 3008.08,1803.12 h 791.1 l -75.75,-384.43 h -639.61 l -75.74,384.43"
            style="fill:#17282f;fill-opacity:1;fill-rule:nonzero;stroke:none"
            id="path252" />
         <path
            d="m 2986.01,1840.04 h 835.24 c 7.9,0 13.58,-7.59 11.38,-15.17 l -9.92,-34.02 c -1.47,-5.06 -6.11,-8.54 -11.38,-8.54 h -815.41 c -5.27,0 -9.91,3.48 -11.38,8.54 l -9.92,34.02 c -2.21,7.58 3.49,15.17 11.39,15.17"
            style="fill:#5F4AE8;fill-opacity:1;fill-rule:nonzero;stroke:none"
            id="path254" />
         <path
            d="m 3811.33,1782.31 h -355.45 c -3.81,19.95 -7.89,39.18 -12.18,57.73 h 21.57 44.72 22.73 288.53 c 6.72,0 11.85,-5.5 11.86,-11.82 0,-1.1 -0.16,-2.23 -0.48,-3.35 l -9.92,-34.02 c -1.47,-5.06 -6.11,-8.54 -11.38,-8.54"
            style="fill:#d0d0e3;fill-opacity:1;fill-rule:nonzero;stroke:none"
            id="path256" />
         <path
            d="m 3085.29,1840.04 h 379.98 v 45.5508 h -379.98 z"
            style="fill:#5F4AE8;fill-opacity:1;fill-rule:nonzero;stroke:none"
            id="path258" />
         <path
            d="m 3465.27,1840.04 h -21.57 c -3.63,15.69 -7.4,30.85 -11.3,45.55 h 32.87 v -45.55"
            style="fill:#3563b7;fill-opacity:1;fill-rule:nonzero;stroke:none"
            id="path260" />
         <path
            d="m 3303.56,1756.8 c -1.86,-5.59 -7.45,-9.33 -13.25,-8.35 -29.8,5.04 -44.85,32.37 -33.96,65.24 l 76.57,230.96 c 12.08,36.43 51.54,66.07 87.97,66.07 h 135.5 c 36.43,0 56.24,-29.64 44.16,-66.07 l -67.83,-204.61 h -22.73 l 67.84,204.61 c 7.92,23.9 -5.08,43.35 -28.97,43.35 h -135.5 c -23.9,0 -49.79,-19.45 -57.72,-43.35 l -76.57,-230.96 c -6.46,-19.51 1.01,-36.05 16.97,-41.47 6.31,-2.14 9.61,-9.09 7.52,-15.42"
            style="fill:#5F4AE8;fill-opacity:1;fill-rule:nonzero;stroke:none"
            id="path262" />
         <path
            d="M 3087.91,1869.39 H 1799.84 c -47.74,0 -86.46,-38.71 -86.46,-86.46 V 199.691 c 0,-47.75 38.72,-86.461 86.46,-86.461 h 1288.07 c 47.75,0 86.46,38.711 86.46,86.461 V 1782.93 c 0,47.75 -38.71,86.46 -86.46,86.46"
            style="fill:#5F4AE8;fill-opacity:1;fill-rule:nonzero;stroke:none"
            id="path264" />
         <path
            d="M 2068.99,1213.36 H 868.98 c -35.187,0 -63.707,-28.52 -63.707,-63.7 0,-35.18 28.52,-63.7 63.707,-63.7 h 1200.01 v 127.4"
            style="fill:#5F4AE8;fill-opacity:1;fill-rule:nonzero;stroke:none"
            id="path266" />
         <path
            d="m 1714.89,890.301 v 195.659 h 354.1 v -35.33 l -354.1,-160.329"
            style="fill:#5241b7;fill-opacity:1;fill-rule:nonzero;stroke:none"
            id="path268" />
         <path
            d="m 2068.99,1085.96 h -764.25 c -35.18,0 -63.7,28.52 -63.7,63.7 0,35.18 28.52,63.7 63.7,63.7 h 764.25 v -127.4"
            style="fill:#d0d0e3;fill-opacity:1;fill-rule:nonzero;stroke:none"
            id="path270" />
         <path
            d="m 3087.91,113.23 h -889.07 c -47.75,0 -86.46,38.711 -86.46,86.461 V 1782.93 c 0,47.75 38.71,86.46 86.46,86.46 h 161.26 484.25 c -3.71,-68.85 -7.82,-140.37 -11.81,-207.61 h -595.99 c -13.65,0 -24.71,-11.06 -24.71,-24.71 v -277.85 c 0,-13.65 11.06,-24.71 24.71,-24.71 h 636.39 c 1.8,-25.42 3.8,-50.16 6.02,-73.97 -2.06,-331.36 8.14,-1090.2 8.14,-1090.2 1.13,-7.449 19,-10.309 39.93,-10.309 26.61,-0.011 58.15,4.617 66.59,10.309 0,0 166.43,552.719 92.55,1090.2 6,18.2 11.77,36.17 17.31,53.92 12.16,-0.31 24.49,-0.48 36.91,-0.48 11.25,0 22.59,0.14 33.98,0.43 v -23.13 -108.42 -0.58 -66.67 -333.329 -66.672 -263.98 -2.5 -249.438 c 0,-47.75 -38.71,-86.461 -86.46,-86.461"
            style="fill:#d0d0e3;fill-opacity:1;fill-rule:nonzero;stroke:none"
            id="path272" />
         <path
            d="m 1279.42,113.23 h 108.488 v 972.73 H 1279.42 Z"
            style="fill:#5F4AE8;fill-opacity:1;fill-rule:nonzero;stroke:none"
            id="path274" />
         <path
            d="m 1387.91,113.23 h -108.49 v 972.73 h 108.49 -108.49 v -65.77 l 108.49,23.51 v -261.419 -66.672 -263.98 -2.5 -335.899"
            style="fill:#d0d0e3;fill-opacity:1;fill-rule:nonzero;stroke:none"
            id="path276" />
         <path
            d="m 1279.42,1020.19 v 65.77 h 108.49 v -42.26 l -108.49,-23.51"
            style="fill:#8686b9;fill-opacity:1;fill-rule:nonzero;stroke:none"
            id="path278" />
         <path
            d="m 2872.94,1334.51 h -636.39 c -13.65,0 -24.71,11.06 -24.71,24.71 v 277.85 c 0,13.65 11.06,24.71 24.71,24.71 h 595.99 c -10.15,-171.05 -19.5,-314.25 -19.5,-314.25 0,0 22.36,-4.92 59.76,-10.98 0.04,-0.69 0.09,-1.35 0.14,-2.04"
            style="fill:#8686b9;fill-opacity:1;fill-rule:nonzero;stroke:none"
            id="path280" />
         <path
            d="m 1594.89,2041.51 h -592.96 l -60.125,-828.15 h 713.205 l -60.12,828.15"
            style="fill:#5F4AE8;fill-opacity:1;fill-rule:nonzero;stroke:none"
            id="path282" />
         <path
            d="m 1043.2,1213.36 h -31.48 v 0 h 31.48 v 0"
            style="fill:#a6afae;fill-opacity:1;fill-rule:nonzero;stroke:none"
            id="path284" />
         <path
            d="m 1011.72,1213.36 h -69.915 v 0 h 69.915 v 0"
            style="fill:#b1baba;fill-opacity:1;fill-rule:nonzero;stroke:none"
            id="path286" />
         <path
            d="m 1101.38,1213.36 h -58.18 v 0 h 58.18 v 0"
            style="fill:#b1baba;fill-opacity:1;fill-rule:nonzero;stroke:none"
            id="path288" />
         <path
            d="M 1101.38,1213.36 H 941.805 1101.38 v 0"
            style="fill:#5241b7;fill-opacity:1;fill-rule:nonzero;stroke:none"
            id="path290" />
         <path
            d="M 1101.38,1213.36 H 941.805 l 60.125,828.15 h 78.66 l 20.79,-828.15"
            style="fill:#5241b7;fill-opacity:1;fill-rule:nonzero;stroke:none"
            id="path292" />
         <path
            d="m 1324.97,2124.92 c -3.02,0 -6.06,-0.13 -9.11,-0.4 -25.27,-2.28 -48,-14.16 -62.37,-32.62 -12.93,-16.61 -18.23,-37.2 -14.92,-57.97 7.35,-46.13 54.43,-79.98 104.95,-75.42 25.26,2.27 47.99,14.16 62.36,32.61 12.93,16.61 18.24,37.2 14.93,57.98 -6.91,43.34 -48.89,75.82 -95.84,75.82 z m 9.52,-184.39 c -55.4,0 -105.03,38.85 -113.27,90.63 -4.09,25.64 2.45,51.05 18.4,71.54 17.35,22.28 44.56,36.61 74.67,39.32 59.56,5.36 115.1,-35.09 123.87,-90.16 4.09,-25.64 -2.46,-51.05 -18.41,-71.54 -17.35,-22.28 -44.56,-36.61 -74.66,-39.31 -3.55,-0.32 -7.09,-0.48 -10.6,-0.48"
            style="fill:#5F4AE8;fill-opacity:1;fill-rule:nonzero;stroke:none"
            id="path294" />
         <path
            d="m 1299.16,2124.92 c -46.96,0 -88.93,-32.48 -95.83,-75.82 -3.32,-20.78 1.99,-41.37 14.92,-57.98 14.37,-18.45 37.1,-30.34 62.37,-32.61 50.52,-4.53 97.59,29.29 104.94,75.41 3.31,20.79 -1.99,41.38 -14.92,57.99 -14.37,18.45 -37.1,30.33 -62.37,32.61 -3.05,0.27 -6.09,0.4 -9.11,0.4 z m -9.52,-184.39 c -3.51,0 -7.04,0.16 -10.6,0.48 -30.09,2.7 -57.31,17.03 -74.66,39.31 -15.95,20.49 -22.5,45.9 -18.41,71.54 8.77,55.07 64.32,95.51 123.87,90.16 30.1,-2.71 57.31,-17.04 74.66,-39.32 15.96,-20.49 22.5,-45.9 18.42,-71.54 -8.25,-51.78 -57.89,-90.63 -113.28,-90.63"
            style="fill:#5F4AE8;fill-opacity:1;fill-rule:nonzero;stroke:none"
            id="path296" />
         <path
            d="m 2184.11,1869.39 h 175.992 V 3170.05 H 2184.11 Z"
            style="fill:#5F4AE8;fill-opacity:1;fill-rule:nonzero;stroke:none"
            id="path298" />
         <path
            d="m 2184.11,2133.71 v 57.16 h 175.99 v -35.46 l -175.99,-21.7"
            style="fill:#5241b7;fill-opacity:1;fill-rule:nonzero;stroke:none"
            id="path300" />
         <path
            d="m 2184.11,3062.25 v 48 h 175.99 v -26.31 l -175.99,-21.69"
            style="fill:#5241b7;fill-opacity:1;fill-rule:nonzero;stroke:none"
            id="path302" />
         <path
            d="m 1812.46,2231.74 -49.02,712.51 c -1.75,25.36 18.36,46.9 43.78,46.9 h 1094.11 c 23.06,0 42.19,-17.86 43.78,-40.88 l 49.02,-712.5 c 1.74,-25.37 -18.36,-46.9 -43.78,-46.9 H 1856.24 c -23.07,0 -42.2,17.86 -43.78,40.87"
            style="fill:#17282f;fill-opacity:1;fill-rule:nonzero;stroke:none"
            id="path304" />
         <path
            d="m 2888.75,2958.6 h -1067.1 c -14.38,0 -25.74,-12.17 -24.76,-26.51 l 47.18,-685.57 c 0.89,-13.01 11.71,-23.11 24.74,-23.11 h 1067.11 c 14.37,0 25.74,12.18 24.75,26.51 l -47.17,685.58 c -0.9,13 -11.71,23.1 -24.75,23.1"
            style="fill:#5F4AE8;fill-opacity:1;fill-rule:nonzero;stroke:none"
            id="path306" />
         <path
            d="M 2935.92,2223.41 H 1868.81 c -13.03,0 -23.85,10.1 -24.74,23.11 l -47.18,685.57 c -0.03,0.56 -0.05,1.12 -0.05,1.67 -0.04,13.6 10.99,24.84 24.81,24.84 h 1067.1 c 13.04,0 23.85,-10.1 24.75,-23.1 l 47.17,-685.58 c 0.04,-0.56 0.06,-1.11 0.06,-1.66 0.03,-13.61 -11,-24.85 -24.81,-24.85 m -297.14,80.27 v 0 l -39.05,567.59 h -704.81 l 39.05,-567.59 h 704.81 m 215.56,312.16 v 0 l -9.96,144.73 h -189.91 l 9.96,-144.73 h 189.91 m -14.09,204.63 v 0 l -3.49,50.8 h -189.91 l 3.5,-50.8 h 189.9"
            style="fill:#d0d0e3;fill-opacity:1;fill-rule:nonzero;stroke:none"
            id="path308" />
         <path
            d="m 2899.53,1893.23 h -936.62 v -23.84 h 936.62 v 23.84"
            style="fill:#17282f;fill-opacity:1;fill-rule:nonzero;stroke:none"
            id="path310" />
         <path
            d="m 2638.78,2303.68 h -704.81 l -39.05,567.59 h 704.81 l 39.05,-567.59"
            style="fill:#8686b9;fill-opacity:1;fill-rule:nonzero;stroke:none"
            id="path312" />
         <path
            d="m 2840.25,2820.47 h -189.9 l -3.5,50.8 h 189.91 l 3.49,-50.8"
            style="fill:#8686b9;fill-opacity:1;fill-rule:nonzero;stroke:none"
            id="path314" />
         <path
            d="m 2854.34,2615.84 h -189.91 l -9.96,144.73 h 189.91 l 9.96,-144.73"
            style="fill:#8686b9;fill-opacity:1;fill-rule:nonzero;stroke:none"
            id="path316" />
         <path
            d="m 2089.82,3110.25 h 354.059 v 264.254 H 2089.82 Z"
            style="fill:#5F4AE8;fill-opacity:1;fill-rule:nonzero;stroke:none"
            id="path318" />
         <path
            d="m 2089.82,3110.25 h 147.352 v 264.254 H 2089.82 Z"
            style="fill:#5241b7;fill-opacity:1;fill-rule:nonzero;stroke:none"
            id="path320" />
         <path
            d="m 3207.97,2237.51 19.55,24.9 c 7.35,9.36 18.77,14.59 30.67,14.04 l 55.57,-2.57 c 22.22,-1.03 42.56,-12.75 54.59,-31.46 l 7.45,-11.59 c -29.6,-43.51 -93.66,-68.71 -93.66,-68.71 l -17.45,-9.22 c -15.55,-8.19 -33.81,-3.02 -41.93,11.91 l -18.7,34.36 c -6.46,11.87 -4.9,27.13 3.91,38.34"
            style="fill:#f46b74;fill-opacity:1;fill-rule:nonzero;stroke:none"
            id="path322" />
         <path
            d="m 3401.55,2736.21 c 5.74,-7.06 9.7,-12.15 14.17,-18.06 4.36,-5.72 8.4,-11.52 12.49,-17.29 8.18,-11.5 15.67,-23.36 23.16,-35.19 14.66,-23.85 28.28,-48.36 40.4,-73.78 6.2,-12.61 11.86,-25.58 17.51,-38.54 5.21,-13.21 10.55,-26.31 15.13,-39.88 9.87,-26.72 16.94,-54.93 23.22,-83.23 l 1.02,-4.63 c 0.7,-3.13 1.03,-6.5 1.04,-9.58 -0.06,-19.38 -4.07,-37.23 -10.12,-52.21 -6.02,-15.08 -13.55,-27.73 -21.45,-38.89 -15.95,-22.04 -33.94,-38.25 -51.85,-52.47 -18.17,-13.99 -36.74,-25.64 -55.8,-35.78 -19.36,-10.12 -37.91,-18.56 -59.55,-25.87 -19.73,-6.67 -41.13,3.92 -47.81,23.65 -4.76,14.07 -0.74,29 9.12,38.83 l 2.47,2.44 c 12.34,12.25 26.48,25.56 38.78,38.57 12.51,13.11 24.41,26.28 34.46,39.5 10.33,12.93 18.44,26.37 23.46,37.51 4.97,11.25 4.4,19.5 2.9,19.58 l 2.06,-14.21 c -7.5,21.6 -15.47,43.05 -25.2,64.32 -9.66,21.19 -20.1,42.25 -31.6,62.96 -11.57,20.63 -23.51,41.23 -36.4,61.24 -6.37,10.04 -13,19.9 -19.56,29.7 l -9.95,14.42 -9.17,12.98 -2.38,3.38 c -23.89,33.82 -15.84,80.61 17.99,104.5 32.38,22.86 76.78,16.26 101.46,-13.97"
            style="fill:#f46b74;fill-opacity:1;fill-rule:nonzero;stroke:none"
            id="path324" />
         <path
            d="m 3264.28,2820.97 c -28.13,-63.98 -26.33,-143.9 60.39,-266.09 57.42,-6.23 163.64,68.28 163.64,68.28 0,0 -73.3,204.56 -224.03,197.81"
            style="fill:#17282f;fill-opacity:1;fill-rule:nonzero;stroke:none"
            id="path326" />
         <path
            d="m 3216.23,3043.5 c -16.78,-61.98 -37.37,-175.56 2.92,-216.93 0,0 -58.72,8.82 -183.37,-68.27 -36.1,51.77 -9.29,68.27 -9.29,68.27 70.36,16.5 72.39,67.79 63.94,115.95 l 125.8,100.98"
            style="fill:#f46b74;fill-opacity:1;fill-rule:nonzero;stroke:none"
            id="path328" />
         <path
            d="m 2962.65,2780.54 c 18.46,39.59 62.04,78.04 92.12,72.32 30.06,-5.7 48.42,-15.09 66.27,-0.25 17.85,14.85 61.74,37.08 84.21,12.24 31.46,-34.79 79.17,-10.21 61.16,-48.15 -19.45,-40.95 -303.76,-36.16 -303.76,-36.16"
            style="fill:#5F4AE8;fill-opacity:1;fill-rule:nonzero;stroke:none"
            id="path330" />
         <path
            d="m 2990.94,3157.27 c -1.22,-8.47 -6.6,-15.01 -12.02,-14.61 -5.42,0.4 -8.83,7.59 -7.62,16.06 1.21,8.46 6.6,15.01 12.02,14.61 5.43,-0.4 8.83,-7.59 7.62,-16.06"
            style="fill:#17282f;fill-opacity:1;fill-rule:nonzero;stroke:none"
            id="path332" />
         <path
            d="m 2985.65,3172.68 -19.09,7.33 c 0,0 7.95,-16.64 19.09,-7.33"
            style="fill:#17282f;fill-opacity:1;fill-rule:nonzero;stroke:none"
            id="path334" />
         <path
            d="m 2989.06,3141.29 c 0,0 -19.31,-35.43 -37.33,-51.88 9.46,-11.24 28.76,-7.84 28.76,-7.84 l 8.57,59.72"
            style="fill:#f14358;fill-opacity:1;fill-rule:nonzero;stroke:none"
            id="path336" />
         <path
            d="m 2976.81,3224.71 c -0.64,1.06 -0.88,2.32 -0.56,3.56 0.65,2.55 3.4,4.03 6.14,3.31 27.47,-7.22 35.69,-28.29 36.02,-29.2 0.95,-2.53 -0.43,-5.22 -3.08,-6.01 -2.65,-0.79 -5.56,0.62 -6.53,3.14 -0.31,0.83 -6.92,17.1 -28.77,22.83 -1.41,0.37 -2.54,1.26 -3.22,2.37"
            style="fill:#17282f;fill-opacity:1;fill-rule:nonzero;stroke:none"
            id="path338" />
         <path
            d="m 3269.16,3167.92 c -18.81,-100.09 -24.65,-142.74 -81.77,-190.75 -85.91,-72.21 -203.94,-34.01 -215.23,68.03 -10.15,91.85 22.31,240.1 125.45,273.15 101.62,32.56 190.35,-50.34 171.55,-150.43"
            style="fill:#f46b74;fill-opacity:1;fill-rule:nonzero;stroke:none"
            id="path340" />
         <path
            d="m 3044.99,3135.61 c -36.16,56.67 -75.35,127.5 -50.75,176.67 24.59,49.17 80.43,37.5 80.43,37.5 0,0 108.33,60.83 205,-18.33 128.62,-105.35 -9.31,-221.2 -43.34,-321.67 -37.42,-110.51 -231.85,23.33 -191.34,125.83"
            style="fill:#17282f;fill-opacity:1;fill-rule:nonzero;stroke:none"
            id="path342" />
         <path
            d="m 3599.17,3319.42 c -52.22,194.45 -281.7,105.13 -348.39,-9.74 l 27.22,-7.03 c 273.69,176.53 138.95,-78.78 141.17,-182.79 2.22,-104.01 105.56,-168.21 105.56,-168.21 0,0 126.66,173.33 74.44,367.77"
            style="fill:#17282f;fill-opacity:1;fill-rule:nonzero;stroke:none"
            id="path344" />
         <path
            d="m 3529.83,2975.37 c -29.26,0 -70.04,5.57 -96.6,32.42 -24.06,24.32 -31.5,61.46 -22.1,110.37 2.98,15.5 7.75,33.52 12.81,52.61 15.78,59.64 35.43,133.87 4.45,160.07 -21.8,18.43 -67.7,11.99 -136.44,-19.17 -1.24,-0.58 -2.74,-0.02 -3.31,1.24 -0.57,1.26 -0.01,2.74 1.25,3.31 71.64,32.48 118,38.5 141.74,18.43 33.38,-28.23 14.13,-100.98 -2.86,-165.17 -5.03,-18.99 -9.78,-36.93 -12.73,-52.26 -9.07,-47.19 -2.09,-82.82 20.74,-105.9 42.56,-43.05 126.92,-28.4 127.78,-28.25 1.35,0.26 2.65,-0.66 2.9,-2.02 0.25,-1.35 -0.66,-2.66 -2.02,-2.9 -1.43,-0.26 -15.91,-2.78 -35.61,-2.78"
            style="fill:#17282f;fill-opacity:1;fill-rule:nonzero;stroke:none"
            id="path346" />
         <path
            d="m 3283.86,3352.17 c 2.59,12.76 -29.48,7.4 -30.94,-3.85 -1.46,-11.25 -5.76,-5.05 -18.26,-21.5 -12.5,-16.46 -14.21,-35.92 26.8,-48.71 26.04,-8.13 29.79,11.87 43.33,21.87 7.31,5.4 15.49,8.27 20.78,12.31 5.97,4.57 3.32,14.17 -4.18,14.81 -16.79,1.43 -40.05,12.65 -37.53,25.07"
            style="fill:#5F4AE8;fill-opacity:1;fill-rule:nonzero;stroke:none"
            id="path348" />
         <path
            d="m 3063.37,3100.02 c -11.13,-20.07 -28.49,-31.98 -44.13,-35.41 -23.54,-5.17 -32.48,21.94 -23.58,48.26 8.01,23.68 29.91,54.91 52.4,48.13 22.15,-6.68 28.03,-38.04 15.31,-60.98"
            style="fill:#f46b74;fill-opacity:1;fill-rule:nonzero;stroke:none"
            id="path350" />
         <path
            d="m 3491.25,63.9414 c 77.75,11.5274 79.24,24.4492 120.94,39.0706 35.68,12.59 45.73,10.777 74.52,20.508 24.08,8.101 15.91,31.019 0.08,55.359 -7.94,12.23 -9.08,23.871 -17.75,45.512 l -118.1,-17.512 c -11.49,-32.969 -15.55,-75.16 -82.96,-99.289 -40.15,-14.3791 -7.72,-48.2384 23.27,-43.6486"
            style="fill:#17282f;fill-opacity:1;fill-rule:nonzero;stroke:none"
            id="path352" />
         <path
            d="m 2771.14,63.6484 c 77.25,0.1407 92.11,5.0704 135.53,6.5625 37.21,1.3477 43.33,-6.5625 81.05,-6.5625 24.99,0 28.44,28.1407 19.29,49.2496 -7.13,16.434 -8.21,36.102 -13.39,57.442 h -106.53 c -19.21,-33.762 -71.6,-58.75 -130.15,-62.942 -41.86,-3.097 -16.73,-43.7496 14.2,-43.7496"
            style="fill:#17282f;fill-opacity:1;fill-rule:nonzero;stroke:none"
            id="path354" />
         <path
            d="m 2861.45,2169.31 c 0,0 -15.4,-555.81 17.51,-908.77 -2.06,-331.36 8.14,-1090.2 8.14,-1090.2 2.57,-16.918 91.45,-10.168 106.52,0 0,0 166.43,552.719 92.55,1090.2 184.96,560.56 145.07,908.77 145.07,908.77 h -369.79"
            style="fill:#17282f;fill-opacity:1;fill-rule:nonzero;stroke:none"
            id="path356" />
         <path
            d="m 2972.33,2169.31 c 0,0 180.57,-627.34 253.82,-935.4 76.93,-323.519 305.77,-812.578 324.79,-1027.031 19.79,-7.879 83.89,0.98 118.1,17.512 0,0 -31.36,683.757 -217.3,995.209 41.98,766.38 -166.02,949.71 -166.02,949.71 h -313.39"
            style="fill:#17282f;fill-opacity:1;fill-rule:nonzero;stroke:none"
            id="path358" />
         <path
            d="m 3535.45,249.832 c 1.25,-10.773 3.05,-29.602 2.38,-44.281 -0.24,-5.289 3.93,-9.539 9.23,-9.602 44.25,-0.508 105.32,18.789 124.64,25.313 3.7,1.25 6.14,4.687 6.18,8.597 l 0.38,41.801 c 0.05,5.719 -5.08,10.09 -10.71,9.149 l -124.49,-20.93 c -4.82,-0.809 -8.17,-5.188 -7.61,-10.047"
            style="fill:#5F4AE8;fill-opacity:1;fill-rule:nonzero;stroke:none"
            id="path360" />
         <path
            d="m 2874.9,217.039 c -0.32,-11.508 -0.99,-32.019 -2.05,-47.168 -0.35,-5.019 3.38,-9.441 8.41,-10.133 37.7,-5.187 97.81,-0.476 117.53,1.301 3.92,0.359 7,3.18 7.74,7.02 l 7.92,41.261 c 1.08,5.629 -3.3,11.078 -9.1,11.321 l -121.32,4.82 c -4.96,0.199 -8.99,-3.481 -9.13,-8.422"
            style="fill:#5F4AE8;fill-opacity:1;fill-rule:nonzero;stroke:none"
            id="path362" />
         <path
            d="m 2837.42,2668.79 c -1.29,-41.71 -3,-94.51 2.78,-194.08 3.29,-84.28 9.07,-167.22 21.25,-305.4 h 424.27 c -8.53,119.52 5.4,255.72 81.58,524.64 17.67,62.35 -21.73,122.23 -84.62,128.61 -16.81,1.71 -34.64,3.13 -52.94,4.01 -71.14,3.45 -129.46,5.72 -192.66,0 -20.94,-1.9 -42.64,-4.54 -63.38,-7.42 -74.88,-10.39 -133.98,-75.6 -136.28,-150.36"
            style="fill:#17282f;fill-opacity:1;fill-rule:nonzero;stroke:none"
            id="path364" />
         <path
            d="m 3283.57,2221.77 c -84.87,-21.67 -214.1,-27.88 -426.22,-5.21 5.1,-112.55 -44.31,-869.03 -44.31,-869.03 0,0 429.92,-94.54 673.02,33.76 15.76,571.74 -202.49,840.48 -202.49,840.48"
            style="fill:#5F4AE8;fill-opacity:1;fill-rule:nonzero;stroke:none"
            id="path366" />
         <path
            d="m 3121.28,1765.37 c 0,0 116.7,108.75 174.35,182.92 -4.6,-77.54 -74.16,-147.33 -174.35,-182.92"
            style="fill:#3563b7;fill-opacity:1;fill-rule:nonzero;stroke:none"
            id="path368" />
         <path
            d="m 2477.52,2669.44 28.23,-14.34 c 10.61,-5.39 17.97,-15.58 19.74,-27.35 l 8.28,-55.01 c 3.31,-22 -4.23,-44.23 -20.24,-59.67 l -9.92,-9.56 c -48.43,20.58 -85.62,78.5 -85.62,78.5 l -12.43,15.33 c -11.06,13.66 -9.53,32.58 3.53,43.45 l 30.07,25.02 c 10.38,8.65 25.64,10.09 38.36,3.63"
            style="fill:#f46b74;fill-opacity:1;fill-rule:nonzero;stroke:none"
            id="path370" />
         <path
            d="m 2983.96,2659.4 c -3.07,-8.56 -5.37,-14.58 -8.11,-21.47 -2.64,-6.69 -5.51,-13.15 -8.32,-19.63 -5.61,-12.96 -11.87,-25.5 -18.11,-38.04 -12.83,-24.88 -26.74,-49.23 -42.2,-72.76 -7.58,-11.84 -15.75,-23.4 -23.91,-34.93 -8.61,-11.31 -17.05,-22.66 -26.29,-33.6 -17.75,-22.28 -38.22,-42.93 -59.19,-62.96 l -2.78,-2.66 c -2.52,-2.41 -5.47,-4.66 -8.3,-6.46 -12.55,-7.86 -26.62,-12.96 -39.64,-15.36 -13.09,-2.47 -25.14,-2.5 -35.8,-1.38 -21.36,2.33 -37.86,8.24 -52.61,14.54 -29.17,12.88 -51.38,29.12 -72.33,45.56 -20.62,16.8 -39.23,34.44 -56.6,52.94 -17.41,18.73 -33.3,37.31 -48.65,58.67 -12.13,16.87 -8.28,40.39 8.6,52.51 12.92,9.29 29.73,9.21 42.34,1.09 l 1.72,-1.12 c 18.63,-12.08 38.33,-25.29 57.53,-37.09 19.31,-11.94 38.58,-23.34 57.64,-33 18.74,-9.85 38.01,-17.8 53.51,-21.75 7.57,-1.91 14.31,-2.4 16.79,-1.57 1.22,0.39 1.19,0.95 -0.25,0.99 -1.37,0.1 -4.19,-0.52 -6.75,-1.86 l -11.09,-9.12 c 14.6,17.6 28.82,35.53 41.98,54.86 13.12,19.24 25.74,39.07 37.5,59.63 11.66,20.59 23.11,41.46 33.55,62.85 5.29,10.65 10.28,21.43 15.28,32.11 l 7.18,15.98 6.37,14.58 1.65,3.78 c 16.57,37.95 60.76,55.28 98.72,38.71 36.32,-15.86 53.67,-57.26 40.57,-94.04"
            style="fill:#f46b74;fill-opacity:1;fill-rule:nonzero;stroke:none"
            id="path372" />
         <path
            d="m 2985.41,2820.73 c -69.3,-9.06 -136.74,-51.98 -196.39,-189.44 24.41,-52.35 143.16,-104.64 143.16,-104.64 0,0 137.05,168.63 53.23,294.08"
            style="fill:#17282f;fill-opacity:1;fill-rule:nonzero;stroke:none"
            id="path374" />
      </g>
   </g>
</svg>